<?xml version="1.0" encoding="UTF-8"?>
<svg id="Layer_2" data-name="Layer 2" xmlns="http://www.w3.org/2000/svg" viewBox="0 0 512 384">
  <defs>
    <style>
      .cls-1 {
        fill: #fff;
      }
    </style>
  </defs>
  <g id="Layer_1-2" data-name="Layer 1">
    <path class="cls-1" d="M64,48c-8.8,0-16,7.2-16,16v22.1L220.5,227.7c20.7,17,50.4,17,71.1,0L464,86.1v-22.1c0-8.8-7.2-16-16-16H64Zm-16,100.2v171.8c0,8.8,7.2,16,16,16H448c8.8,0,16-7.2,16-16V148.2l-142,116.6c-38.4,31.5-93.7,31.5-132,0L48,148.2ZM0,64C0,28.7,28.7,0,64,0H448c35.3,0,64,28.7,64,64V320c0,35.3-28.7,64-64,64H64C28.7,384,0,355.3,0,320V64Z"/>
  </g>
</svg>