<svg width="67" height="86" viewBox="0 0 67 86" fill="none" xmlns="http://www.w3.org/2000/svg">
<path d="M8.67273 42.9736C12.7067 39.373 17.449 39.424 18.4801 39.4609H32.6898C32.8853 39.4609 33.1374 39.4495 33.4349 39.4297C37.7352 39.3702 41.6049 37.5487 44.3641 34.6563C44.4887 34.526 44.6077 34.3928 44.7267 34.2597C44.7805 34.1974 44.8344 34.1379 44.8882 34.0756C45.0015 33.9452 45.112 33.8121 45.2196 33.6761C45.2734 33.6081 45.3273 33.5401 45.3811 33.4693C47.4094 30.8603 48.6219 27.5855 48.6219 24.0245V19.9424C48.6247 11.4324 41.7267 4.53436 33.2167 4.53436H16.9504C9.82004 4.53436 4.03815 10.3163 4.03815 17.4494V52.985C4.12313 51.1181 4.73503 46.4892 8.67273 42.9736Z" stroke="white" stroke-width="8"/>
<path fill-rule="evenodd" clip-rule="evenodd" d="M18.4801 38.2405C17.449 38.2036 12.7067 38.1526 8.67273 41.7532C4.73503 45.2688 4.12313 49.8977 4.03815 51.7646V41.7919C-0.00890049 46.8209 0.0243092 52.5398 0.0401494 53.4934L0.0411467 53.5534L0.0439441 53.6134C0.043027 53.5937 0.0431367 53.6014 0.0438493 53.6512L0.0438497 53.6512C0.0445785 53.7022 0.0459375 53.7972 0.0474741 53.952C0.050033 54.21 0.0526969 54.5681 0.0554306 55.014C0.0608918 55.9048 0.066544 57.1307 0.0722064 58.5727C0.0835285 61.4558 0.0948553 65.1935 0.104769 68.8206C0.130743 78.1414 7.69299 85.6849 17.017 85.6849H37.7583L37.8873 85.6765C40.9672 85.4772 46.5505 84.6806 52.2445 81.0759L52.2458 81.0751C52.8058 80.7202 56.337 78.4096 59.7479 74.3085C63.166 70.1989 66.6627 64.0404 66.5835 56.1152C66.4669 44.4057 58.6129 33.8183 47.2091 29.2486C46.7134 30.3207 46.0983 31.3265 45.3811 32.2489C45.3273 32.3198 45.2734 32.3878 45.2196 32.4557C45.112 32.5917 45.0015 32.7249 44.8882 32.8552C44.8612 32.8864 44.8343 32.9168 44.8074 32.9473C44.7805 32.9777 44.7536 33.0082 44.7267 33.0393L44.7267 33.0393C44.6077 33.1725 44.4887 33.3056 44.3641 33.4359C41.6049 36.3283 37.7352 38.1498 33.4349 38.2093C33.1374 38.2291 32.8853 38.2405 32.6898 38.2405H18.4801ZM44.0823 39.8336C44.9885 39.2218 45.8399 38.5357 46.6279 37.7842C53.9701 41.6744 58.5107 48.8483 58.584 56.1949C58.638 61.6069 56.2664 65.9838 53.5973 69.1929C50.9271 72.4034 48.1587 74.1939 47.9654 74.3165C43.8958 76.8928 39.8614 77.5197 37.4948 77.6849H17.017C12.103 77.6849 8.11854 73.7098 8.10474 68.7983C8.08609 61.976 8.0631 54.5024 8.03905 53.3605C8.02881 52.7444 8.06394 48.6064 11.3519 45.6717C14.1995 43.1301 17.6106 43.1478 18.364 43.1726L18.4298 43.1748H32.7054C32.9779 43.1748 33.2885 43.1644 33.6282 43.1412C37.4983 43.0643 41.0888 41.8546 44.0823 39.8336Z" fill="white"/>
</svg>
