<svg width="87" height="96" viewBox="0 0 87 96" fill="none" xmlns="http://www.w3.org/2000/svg">
<mask id="path-1-outside-1_268_79" maskUnits="userSpaceOnUse" x="0.0237427" y="0.534363" width="87" height="96" fill="black">
<rect fill="white" x="0.0237427" y="0.534363" width="87" height="96"/>
<path fill-rule="evenodd" clip-rule="evenodd" d="M9.02374 12.5344C9.02374 10.8775 10.3669 9.53436 12.0237 9.53436H74.8545C76.5113 9.53436 77.8545 10.8775 77.8545 12.5344V67.069C77.8545 68.7258 76.5113 70.069 74.8545 70.069H53.3577C53.3591 70.2343 53.3186 70.4043 53.2284 70.5652L44.3112 86.4602C43.9292 87.1412 42.949 87.1412 42.567 86.4602L33.6498 70.5652C33.5596 70.4043 33.5192 70.2343 33.5206 70.069H12.0237C10.3669 70.069 9.02374 68.7258 9.02374 67.069V12.5344ZM47.1617 58.1172V28.1417H55.7524V21.4861H31.1258V28.1417H39.6688V58.1172H47.1617Z"/>
</mask>
<path d="M53.3577 70.069V61.069H44.282L44.358 70.1444L53.3577 70.069ZM53.2284 70.5652L45.3792 66.1617L45.3792 66.1618L53.2284 70.5652ZM44.3112 86.4602L52.1604 90.8636L52.1604 90.8636L44.3112 86.4602ZM42.567 86.4602L34.7178 90.8636L34.7178 90.8637L42.567 86.4602ZM33.6498 70.5652L25.8006 74.9686L25.8006 74.9686L33.6498 70.5652ZM33.5206 70.069L42.5202 70.1445L42.5964 61.069H33.5206V70.069ZM47.1617 28.1417V19.1417H38.1617V28.1417H47.1617ZM47.1617 58.1172V67.1172H56.1617V58.1172H47.1617ZM55.7524 28.1417V37.1417H64.7524V28.1417H55.7524ZM55.7524 21.4861H64.7524V12.4861H55.7524V21.4861ZM31.1258 21.4861V12.4861H22.1258V21.4861H31.1258ZM31.1258 28.1417H22.1258V37.1417H31.1258V28.1417ZM39.6688 28.1417H48.6688V19.1417H39.6688V28.1417ZM39.6688 58.1172H30.6688V67.1172H39.6688V58.1172ZM12.0237 0.534363C5.39633 0.534363 0.0237427 5.90694 0.0237427 12.5344H18.0237C18.0237 15.8481 15.3375 18.5344 12.0237 18.5344V0.534363ZM74.8545 0.534363H12.0237V18.5344H74.8545V0.534363ZM86.8545 12.5344C86.8545 5.90697 81.4819 0.534363 74.8545 0.534363V18.5344C71.5407 18.5344 68.8545 15.848 68.8545 12.5344H86.8545ZM86.8545 67.069V12.5344H68.8545V67.069H86.8545ZM74.8545 79.069C81.4819 79.069 86.8545 73.6964 86.8545 67.069H68.8545C68.8545 63.7553 71.5408 61.069 74.8545 61.069V79.069ZM53.3577 79.069H74.8545V61.069H53.3577V79.069ZM61.0775 74.9687C61.9472 73.4186 62.3717 71.7013 62.3574 69.9936L44.358 70.1444C44.3465 68.7673 44.6901 67.39 45.3792 66.1617L61.0775 74.9687ZM52.1604 90.8636L61.0776 74.9686L45.3792 66.1618L36.462 82.0568L52.1604 90.8636ZM34.7178 90.8637C38.5381 97.6733 48.3401 97.6734 52.1604 90.8636L36.4621 82.0568C39.5183 76.609 47.3599 76.609 50.4162 82.0567L34.7178 90.8637ZM25.8006 74.9686L34.7178 90.8636L50.4162 82.0568L41.499 66.1618L25.8006 74.9686ZM24.5209 69.9935C24.5066 71.7015 24.9312 73.4187 25.8006 74.9686L41.4991 66.1618C42.188 67.3899 42.5318 68.7672 42.5202 70.1445L24.5209 69.9935ZM12.0237 79.069H33.5206V61.069H12.0237V79.069ZM0.0237427 67.069C0.0237427 73.6964 5.3963 79.069 12.0237 79.069V61.069C15.3375 61.069 18.0237 63.7553 18.0237 67.069H0.0237427ZM0.0237427 12.5344V67.069H18.0237V12.5344H0.0237427ZM38.1617 28.1417V58.1172H56.1617V28.1417H38.1617ZM55.7524 19.1417H47.1617V37.1417H55.7524V19.1417ZM46.7524 21.4861V28.1417H64.7524V21.4861H46.7524ZM31.1258 30.4861H55.7524V12.4861H31.1258V30.4861ZM40.1258 28.1417V21.4861H22.1258V28.1417H40.1258ZM39.6688 19.1417H31.1258V37.1417H39.6688V19.1417ZM48.6688 58.1172V28.1417H30.6688V58.1172H48.6688ZM47.1617 49.1172H39.6688V67.1172H47.1617V49.1172Z" fill="white" mask="url(#path-1-outside-1_268_79)"/>
</svg>
